<svg xmlns="http://www.w3.org/2000/svg" width="693" height="183" viewBox="0 0 693 183">
  <g fill="none" fill-rule="evenodd">
    <path fill="#BCBEC0" d="M560.654,72.282 C561.421,68.459 562.123,64.965 562.82,61.469 C564.415,53.475 566.008,45.48 567.598,37.484 C569.833,26.246 572.083,15.012 574.283,3.767 C575.006,0.068 574.945,0.056 578.649,0.056 C584.886,0.056 591.125,0.092 597.362,0.026 C598.553,0.013 598.817,0.305 598.576,1.442 C595.312,16.817 592.057,32.194 588.841,47.579 C585.689,62.654 582.589,77.739 579.455,92.818 C578.451,97.652 577.402,102.478 576.403,107.313 C576.221,108.191 575.897,108.567 574.887,108.56 C567.33,108.506 559.772,108.519 552.214,108.547 C551.348,108.55 550.962,108.261 550.646,107.435 C547.13,98.229 543.567,89.041 540.012,79.851 C535.867,69.135 531.719,58.42 527.572,47.706 C526.278,44.365 524.979,41.026 523.422,37.659 C523.088,39.108 522.717,40.548 522.425,42.005 C520.901,49.598 519.408,57.197 517.882,64.79 C515.571,76.29 513.243,87.787 510.922,99.285 C510.402,101.86 509.774,104.419 509.409,107.016 C509.217,108.377 508.62,108.574 507.439,108.555 C503.616,108.491 499.791,108.53 495.966,108.53 C492.824,108.53 489.68,108.46 486.543,108.564 C485.202,108.608 484.979,108.212 485.245,106.988 C486.601,100.747 487.912,94.495 489.208,88.242 C491.452,77.42 493.659,66.591 495.909,55.77 C498.039,45.525 500.211,35.29 502.351,25.047 C504.019,17.067 505.691,9.087 507.289,1.091 C507.474,0.166 507.847,0.044 508.63,0.045 C516.461,0.064 524.292,0.066 532.123,0.043 C532.911,0.04 533.327,0.244 533.627,1.041 C537.953,12.562 542.317,24.069 546.673,35.579 C551.223,47.598 555.775,59.616 560.328,71.634 C560.374,71.756 560.444,71.868 560.654,72.282"/>
    <path fill="#6D6E71" d="M278.547,59.471 C285.375,64.011 286.464,71.006 286.536,78.308 C286.579,82.669 286.133,87.034 285.939,91.399 C285.721,96.269 285.658,101.139 286.602,105.953 C286.811,107.017 287.17,108.059 287.552,109.076 C287.81,109.766 287.661,110.005 286.949,109.944 C286.814,109.931 286.676,109.942 286.54,109.942 C278.937,109.942 271.335,109.925 263.732,109.963 C262.782,109.968 262.467,109.698 262.212,108.749 C260.797,103.491 261.16,98.183 261.623,92.875 C262.042,88.068 262.546,83.266 262.311,78.433 C262.041,72.853 258.89,69.573 253.358,68.889 C249.997,68.473 246.63,68.627 243.266,68.604 C238.531,68.572 233.796,68.626 229.062,68.57 C228.14,68.559 227.82,68.866 227.644,69.716 C225.094,82.041 222.509,94.361 219.953,106.685 C219.278,109.936 219.31,109.942 216.05,109.942 C209.13,109.942 202.211,109.945 195.291,109.937 C194.799,109.936 194.291,110.047 193.756,109.783 C195.238,102.585 196.72,95.379 198.207,88.174 C202.449,67.613 206.693,47.053 210.936,26.492 C212.589,18.482 214.247,10.472 215.873,2.455 C216.041,1.624 216.41,1.411 217.233,1.412 C234.623,1.437 252.014,1.412 269.404,1.442 C273.926,1.449 278.401,1.988 282.713,3.419 C290.823,6.109 296.208,11.536 298.41,19.815 C300.651,28.239 300.481,36.587 296.462,44.535 C292.843,51.69 287.144,56.517 279.556,59.111 C279.226,59.223 278.9,59.345 278.547,59.471 Z M250.885,22.164 C246.297,22.164 242.475,22.179 238.652,22.151 C237.91,22.146 237.556,22.287 237.386,23.13 C235.706,31.455 233.984,39.772 232.22,48.08 C231.998,49.127 232.188,49.375 233.263,49.366 C239.587,49.318 245.912,49.363 252.237,49.335 C256.264,49.317 260.213,48.757 264,47.317 C271.881,44.318 275.367,38.239 273.786,30.263 C273.146,27.032 271.327,24.764 268.247,23.527 C266.801,22.947 265.296,22.645 263.756,22.458 C259.219,21.91 254.664,22.296 250.885,22.164 Z"/>
    <path fill="#BCBEC0" d="M629.515,108.53 C616.176,108.53 602.838,108.519 589.499,108.551 C588.271,108.554 587.863,108.422 588.169,106.98 C590.566,95.683 592.856,84.362 595.18,73.049 C597.879,59.918 600.57,46.786 603.278,33.656 C605.401,23.365 607.535,13.076 609.686,2.791 C610.259,0.048 610.298,0.056 613.167,0.056 C639.162,0.056 665.158,0.056 691.153,0.056 C692.88,0.056 692.906,0.063 692.578,1.7 C691.297,8.095 689.987,14.484 688.719,20.882 C688.518,21.898 688.078,22.224 686.999,22.222 C669.153,22.181 651.306,22.188 633.461,22.199 C631.181,22.2 631.532,21.836 631.029,24.273 C629.866,29.906 628.755,35.551 627.515,41.166 C627.241,42.406 627.716,42.405 628.632,42.404 C641.107,42.387 653.581,42.392 666.055,42.392 C670.244,42.392 674.432,42.426 678.62,42.368 C679.642,42.354 679.983,42.553 679.751,43.626 C678.445,49.646 677.164,55.671 675.926,61.705 C675.684,62.888 675.095,63.172 673.951,63.169 C657.47,63.134 640.99,63.157 624.509,63.121 C623.283,63.118 622.828,63.443 622.577,64.716 C621.233,71.514 619.778,78.29 618.297,85.059 C618.055,86.167 618.279,86.416 619.402,86.414 C637.704,86.382 656.005,86.391 674.306,86.391 C675.902,86.391 675.885,86.389 675.561,87.938 C674.215,94.365 672.861,100.791 671.561,107.228 C671.344,108.3 670.846,108.557 669.806,108.554 C656.376,108.519 642.946,108.53 629.515,108.53"/>
    <path fill="#6D6E71" d="M42.212 109.96C28.825 109.96 15.439 109.945 2.052 109.986.854 109.99.542 109.813.81 108.531 5.09 88.021 9.321 67.501 13.559 46.982 16.602 32.249 19.65 17.517 22.65 2.776 22.862 1.738 23.205 1.404 24.29 1.405 50.926 1.438 77.563 1.439 104.2 1.406 105.443 1.405 105.553 1.728 105.313 2.859 103.956 9.261 102.653 15.677 101.423 22.105 101.203 23.259 100.856 23.641 99.63 23.638 81.645 23.592 63.66 23.617 45.674 23.582 44.528 23.58 44.044 23.839 43.809 25.053 42.687 30.854 41.463 36.635 40.225 42.412 39.989 43.512 40.274 43.767 41.38 43.764 57.954 43.731 74.528 43.752 91.102 43.719 92.293 43.717 92.724 43.811 92.403 45.22 91.044 51.203 89.79 57.21 88.593 63.227 88.376 64.323 87.891 64.462 86.952 64.46 74.75 64.436 62.547 64.445 50.344 64.445 45.836 64.445 41.328 64.467 36.821 64.424 35.946 64.416 35.565 64.625 35.378 65.541 33.934 72.621 32.449 79.693 30.928 86.757 30.684 87.889 31.296 87.784 32.015 87.783 42.078 87.776 52.14 87.778 62.203 87.778 70.49 87.778 78.777 87.796 87.064 87.757 88.188 87.752 88.618 87.809 88.312 89.182 86.849 95.746 85.498 102.336 84.169 108.93 83.968 109.926 83.447 109.973 82.645 109.972 69.168 109.955 55.69 109.96 42.212 109.96M379.608375 43.1071904C379.58743 43.0308542 379.566969 42.954124 379.547 42.877 379.45 42.673 379.344 42.471 379.256 42.262 374.397 30.769 363.192 24.679 350.923 27.063 339.396 29.303 331.318 36.11 326.509 46.661 322.529 55.394 322.273 64.318 326.901 72.949 333.242 84.773 347.751 89.18 360.457 83.289 366.984 80.262 372.015 75.463 376.246 69.747 377.954 67.44 379.712 65.177 381.819 63.211 384.994 60.248 388.668 58.544 393.081 58.366 399.972 58.089 406.385 62.812 407.906 69.448 407.917297 69.4679781 407.928834 69.4878577 407.940534 69.5076721 407.660034 69.8190805 407.245503 69.8951692 406.869 70.018 404.816 70.686 403.349 72.067 402.26 73.862 400.351 77.008 399.003 80.462 396.904 83.508 395.022 86.242 393.087 88.931 390.901 91.432 390.543 91.842 390.157 92.234 389.614 92.408 385.709 96.373 381.544 100.024 376.812 102.987 365.878 109.838 354.022 113.17 341.097 112.007 321.351 110.232 305.229 96.824 300.003 77.678 295.344 60.613 298.482 44.614 307.799 29.865 317.005 15.294 329.936 5.376 346.919 1.645 365.155-2.361 381.297 1.757 394.392 15.646 395.605 16.932 396.646 18.379 397.767 19.751 398.705 20.321 398.064 20.844 397.664 21.272 395.262 23.837 393.179 26.642 391.275 29.587 389.818 31.841 388.499 34.173 387.289 36.57 385.899 39.322 383.934 41.531 381.059 42.815 380.590398 43.0238525 380.124877 43.3066308 379.608375 43.1071904z"/>
    <path fill="#BCBEC0" d="M407.906,69.448 C408.014,69.639 408.144,69.821 408.228,70.023 C413.315,82.188 424.975,87.633 437.592,85.021 C444.774,83.533 450.7,79.833 455.444,74.254 C461.469,67.167 464.537,59.08 463.665,49.68 C463.025,42.775 460.246,36.943 454.916,32.43 C448.548,27.041 441.173,25.455 433.121,27.074 C426.866,28.333 421.874,31.96 417.269,36.187 C412.804,40.284 409.186,45.163 404.911,49.447 C397.122,57.256 382.6,54.668 379.547,42.877 C381.384,42.718 382.711,41.59 384.002,40.452 C385.345,39.268 386.345,37.799 387.131,36.193 C389.849,30.651 393.27,25.586 397.416,21.011 C397.747,20.645 398.168,20.317 397.767,19.751 C399.106,18.548 400.454,17.355 401.782,16.14 C409.187,9.369 417.67,4.559 427.385,1.946 C432.775,0.497 438.255,-0.203 443.815,0.089 C454.408,0.644 463.976,4.003 472.178,10.888 C481.493,18.707 486.849,28.728 488.827,40.661 C490.255,49.278 489.53,57.742 487.122,66.082 C483.651,78.106 477.073,88.217 467.793,96.524 C459.403,104.034 449.671,109.079 438.555,111.16 C427.782,113.177 417.284,112.116 407.335,107.365 C400.288,104.001 394.437,99.101 389.89,92.704 C389.812,92.596 389.707,92.506 389.614,92.408 C394.501,86.972 398.443,80.92 401.615,74.336 C402.869,71.733 404.878,69.878 407.906,69.448 Z"/>
    <path fill="#6D6E71" d="M126.86 1.431C130.73 1.431 134.601 1.467 138.47 1.407 139.512 1.39 139.785 1.603 139.56 2.676 134.861 25.047 130.177 47.421 125.537 69.804 124.857 73.088 124.126 76.386 124.824 79.8 125.497 83.088 127.33 85.492 130.123 87.235 132.674 88.826 135.456 89.757 138.444 90.052 142.863 90.487 147.278 90.485 151.592 89.314 158.191 87.521 162.106 82.973 164.214 76.661 166.539 69.702 167.863 62.499 169.359 55.34 173.038 37.723 176.693 20.102 180.319 2.474 180.52 1.502 180.992 1.413 181.812 1.416 189.506 1.441 197.201 1.469 204.895 1.394 206.195 1.381 206.222 1.78 206.005 2.817 203.024 17.051 200.098 31.297 197.105 45.528 195.206 54.554 193.609 63.648 191.265 72.576 189.739 78.386 187.864 84.079 185.084 89.431 179.312 100.54 170.328 107.648 158.156 110.491 145.776 113.383 133.41 113.116 121.231 109.315 115.464 107.515 110.344 104.542 106.212 100.013 99.933 93.129 98.18 84.876 99.085 75.924 99.899 67.861 101.913 59.999 103.551 52.078 106.967 35.568 110.44 19.069 113.845 2.556 114.035 1.637 114.36 1.401 115.25 1.411 119.119 1.457 122.99 1.431 126.86 1.431M418.853 135.037C410.996 149.837 403.129 164.633 395.303 179.45 394.806 180.393 394.255 180.709 393.208 180.674 390.707 180.59 388.201 180.63 385.698 180.658 385.04 180.665 384.751 180.508 384.665 179.778 383.402 169.08 382.109 158.386 380.814 147.692 380.296 143.408 379.752 139.128 378.958 134.816 378.605 136.614 378.242 138.41 377.903 140.211 375.427 153.377 372.95 166.543 370.502 179.714 370.363 180.459 370.069 180.669 369.343 180.661 365.929 180.629 362.515 180.628 359.101 180.661 358.301 180.669 358.129 180.507 358.307 179.669 361.793 163.325 365.242 146.974 368.698 130.624 369.205 128.226 369.727 125.831 370.192 123.425 370.339 122.662 370.646 122.4 371.454 122.405 376.688 122.445 381.923 122.442 387.159 122.409 387.955 122.404 388.208 122.591 388.295 123.441 389.321 133.389 390.408 143.331 391.471 153.276 391.863 156.936 392.233 160.599 392.624 164.359 393.19 164.107 393.282 163.595 393.492 163.199 400.497 150.053 407.5 136.905 414.474 123.743 414.966 122.815 415.484 122.373 416.633 122.392 421.685 122.472 426.739 122.457 431.792 122.402 432.924 122.389 433.088 122.631 432.849 123.747 428.874 142.401 424.95 161.065 421.013 179.726 420.91 180.214 420.839 180.667 420.115 180.661 416.385 180.63 412.656 180.647 408.789 180.647 412.253 165.463 415.692 150.384 419.132 135.305 419.205 135.199 419.246 135.075 419.154 134.977 419.044 134.86 418.948 134.984 418.853 135.037M537.032 163.973C538.017 159.08 538.932 154.556 539.839 150.03 541.604 141.216 543.373 132.402 545.115 123.582 545.277 122.764 545.527 122.376 546.484 122.398 549.67 122.471 552.858 122.439 556.046 122.416 556.792 122.411 557.175 122.392 556.956 123.424 552.962 142.169 549.015 160.925 545.071 179.681 544.931 180.343 544.71 180.677 543.928 180.667 540.241 180.622 536.551 180.599 532.865 180.679 531.87 180.7 531.782 180.083 531.545 179.477 526.861 167.515 522.181 155.552 517.5 143.59 517.025 142.377 516.54 141.168 515.919 139.601 515.017 144.036 514.195 148.079 513.374 152.123 511.539 161.16 509.68 170.193 507.896 179.24 507.665 180.417 507.187 180.706 506.048 180.676 502.909 180.593 499.765 180.627 496.624 180.661 495.82 180.67 495.531 180.609 495.74 179.63 499.732 160.885 503.682 142.131 507.624 123.376 507.771 122.677 508.035 122.402 508.788 122.408 512.521 122.446 516.255 122.457 519.988 122.403 520.867 122.39 521.255 122.684 521.558 123.483 526.291 135.96 531.052 148.427 535.81 160.896 536.161 161.816 536.536 162.726 537.032 163.973M493.206 146.363C492.993 156.192 490.479 165.204 483.677 172.637 478.78 177.989 472.639 180.935 465.455 181.776 460.794 182.321 456.197 182.041 451.694 180.696 443.815 178.345 438.59 173.17 436.683 165.236 433.783 153.164 435.895 141.881 443.691 132.058 449.758 124.411 457.978 120.979 467.703 121.028 471.416 121.046 475.056 121.509 478.545 122.789 487.126 125.939 491.623 132.315 492.91 141.183 493.159 142.9 493.23 144.622 493.206 146.363zM480.399 147.16C480.321 145.518 480.282 143.976 480.002 142.448 478.967 136.824 475.523 132.948 470.532 132.098 463.985 130.981 458.415 132.925 454.285 138.146 449.162 144.623 447.55 152.157 448.728 160.222 449.596 166.165 453.471 170.173 458.777 171.007 464.589 171.921 469.589 170.197 473.542 165.839 478.354 160.532 480.146 154.064 480.399 147.16zM578.598 180.676C571.633 180.676 564.669 180.655 557.704 180.697 556.573 180.704 556.16 180.645 556.455 179.261 560.414 160.698 564.305 142.12 568.172 123.537 568.357 122.645 568.631 122.352 569.549 122.354 583.617 122.381 597.683 122.379 611.751 122.358 612.653 122.357 612.922 122.511 612.693 123.497 612.037 126.327 611.451 129.176 610.956 132.038 610.788 133.01 610.362 133.154 609.51 133.153 599.859 133.128 590.208 133.162 580.557 133.106 579.367 133.099 578.918 133.455 578.708 134.592 578.088 137.94 577.419 141.281 576.652 144.598 576.413 145.635 576.754 145.694 577.596 145.692 586.518 145.67 595.442 145.712 604.364 145.64 605.662 145.629 605.704 146.019 605.46 147.049 604.882 149.479 604.308 151.914 603.895 154.374 603.709 155.482 603.193 155.613 602.254 155.611 593.422 155.584 584.59 155.622 575.759 155.562 574.59 155.554 574.223 155.923 574.013 157.004 573.252 160.927 572.435 164.841 571.534 168.734 571.287 169.798 571.572 169.931 572.525 169.928 582.221 169.901 591.918 169.91 601.615 169.911 603.416 169.911 603.413 169.911 603.048 171.626 602.493 174.247 601.875 176.858 601.422 179.496 601.247 180.515 600.832 180.7 599.904 180.695 592.802 180.66 585.701 180.676 578.598 180.676M625.188 180.647C625.948 176.94 626.682 173.348 627.422 169.757 628.174 166.111 628.925 162.464 629.698 158.822 629.84 158.153 629.647 157.575 629.413 156.978 625.093 145.949 620.779 134.919 616.463 123.889 615.891 122.429 615.888 122.427 617.392 122.427 620.852 122.425 624.312 122.459 627.77 122.404 628.728 122.389 629.178 122.645 629.508 123.605 632.043 130.986 634.648 138.343 637.236 145.706 637.385 146.131 637.573 146.542 637.795 147.086 640.248 143.732 642.635 140.47 645.019 137.205 648.371 132.613 651.737 128.032 655.049 123.413 655.589 122.659 656.157 122.396 657.064 122.406 661.206 122.451 665.348 122.422 669.491 122.433 669.877 122.434 670.289 122.31 670.785 122.619 668.871 125.07 666.982 127.493 665.087 129.912 657.792 139.223 650.505 148.539 643.186 157.831 642.123 159.182 642.164 160.815 641.837 162.337 640.593 168.107 639.449 173.899 638.285 179.686 638.182 180.193 638.199 180.66 637.459 180.656 633.413 180.635 629.366 180.647 625.188 180.647"/>
    <path fill="#7987AD" d="M418.853,135.037 C418.888,134.768 419.129,134.381 419.233,134.457 C419.585,134.715 419.367,135.039 419.132,135.305 C419.04,135.216 418.946,135.126 418.853,135.037"/>
  </g>
</svg>
